PathFileType	4	(X/Y/Z)	C:\Users\°ÂÌØÂü\Desktop\20210112\bx_y_0_902-Unnamed.trc
DataRate	CameraRate	NumFrames	NumMarkers	Units	OrigDataRate	OrigDataStartFrame	OrigNumFrames
50.00	50.00	       8	0	mm	50.00	1	       466
Frame#	Time	
		

1	0.000	-683.55994	137.23547	1849.95313	-627.20581	114.48119	1436.28406	-593.90710	0.41943	1046.93872	-581.03558	227.00211	1066.84143				-725.28888	253.87161	638.05438	-730.82776	249.05165	574.85699	-676.75879	209.00476	531.81989	-771.34296	256.91486	502.08792	-663.35431	-66.15228	164.12268	-716.71442	79.34898	215.68544	-603.06616	20.36390	165.55609	-674.95520	56.55514	155.70276	-711.09863	152.27873	216.36069	-795.93097	172.33202	184.10388	-771.11560	222.45490	205.19914	-594.48499	222.66698	173.38101	-882.57715	296.08688	144.53578	-561.16644	262.23077	166.04240	-667.24188	299.22467	159.58160	-630.00977	307.57025	162.51939	-528.20660	304.21338	146.40298	-700.46777	-63.62656	1546.01770	-791.95093	105.61423	1057.18262	-766.30615	-3.87490	207.67390	-794.34454	56.50863	175.08684	-765.77917	-30.81580	488.10385	-559.20105	-39.42862	164.32368	-875.99139	-78.70409	141.37393	-697.80347	-42.00169	715.56140	-720.01697	-20.60660	567.11395	-674.79309	171.75000	157.05403	-622.51770	-77.03606	159.37822				-637.96497	286.68097	874.98401	-517.63678	-72.87609	142.59570	-587.60547	1.99370	800.13446	-689.22852	277.81900	744.03931	-670.67834	23.51403	519.27783	-731.38385	299.24112	1527.13770	-581.72211	220.29985	811.06128	-694.32477	84.94214	572.43365	-691.54895	146.68021	571.82086	-706.40680	-23.92622	614.72113	-657.31757	-63.39887	855.68964	
2	0.020	-683.49377	137.03340	1850.03662	-627.15631	114.63586	1436.02039	-593.90710	0.41943	1046.93872	-581.03558	227.00211	1066.84143				-725.32404	254.22227	638.30377	-730.71808	249.23557	574.92627	-676.86804	208.76610	531.76758	-771.47803	256.83426	502.03427	-663.27759	-66.25467	164.05165	-716.48956	79.45238	215.53328	-603.09668	20.54641	165.54988	-674.61060	56.87976	156.02254	-711.15466	152.42155	216.23610	-796.01031	172.18362	184.08807	-771.03357	222.33093	205.15227	-594.48499	222.66698	173.38101	-882.57355	295.99719	144.45621	-561.21460	262.17929	165.93250	-667.18030	299.15750	159.86757	-629.95813	307.70056	162.49272	-528.05084	304.17029	146.38843	-700.51837	-63.75344	1545.95593	-791.71814	105.65968	1057.19824	-766.39801	-4.01996	207.76572	-794.31848	56.53719	174.99400	-765.74622	-30.92324	488.06451	-559.11084	-39.35620	163.95563	-876.03320	-78.59757	141.50241	-696.92676	-43.42883	716.50989	-720.05634	-20.18863	566.89612	-674.79309	171.75000	157.05403	-622.51770	-77.03606	159.37822				-637.86224	286.72000	874.86346	-517.63678	-72.87609	142.59570	-587.64331	1.96791	800.22559	-689.41986	277.73425	744.04205	-670.94983	23.50965	519.18994	-731.42706	299.12579	1527.22693	-581.76642	220.18802	810.87750	-694.59863	84.88807	572.79785	-691.54956	146.56535	571.62927	-706.41956	-24.27654	614.90613	-657.35126	-63.61005	855.92450	
3	0.040	-683.54504	136.94508	1850.04260	-627.40167	114.18279	1435.95752	-593.90710	0.41943	1046.93872	-581.14075	226.97112	1066.89319				-725.22253	253.60501	637.88922	-730.75696	249.04874	574.96973	-676.86804	208.76610	531.76758	-771.47803	256.83426	502.03427	-663.35217	-66.28434	163.95157	-716.46277	79.53812	215.49530	-603.07489	20.38554	165.61835	-674.68011	56.66887	155.79681	-711.10260	152.26936	216.35071	-796.01031	172.18362	184.08807	-771.02661	222.38115	205.23474	-594.41144	222.55737	173.38995	-882.50702	296.02576	144.51955	-561.10358	262.16519	166.06924	-667.20795	299.14548	159.60039	-630.00360	307.79501	162.31842	-528.20660	304.21338	146.40298	-700.55560	-63.74944	1545.92688	-791.82953	105.59910	1057.08179	-766.41394	-4.14342	207.77745	-794.31848	56.53719	174.99400	-765.74487	-30.89032	488.10709	-559.13501	-39.50988	163.98268	-875.95990	-78.71896	141.37714	-696.81500	-43.63760	716.59033	-719.95923	-20.27690	566.94653	-674.94849	171.93478	156.86276	-622.40320	-77.38432	159.20207				-637.86658	286.56232	874.94067	-517.84149	-72.73906	142.58046	-587.55438	2.07855	800.10986	-689.24457	277.56464	744.16107	-670.79913	23.53457	519.27112	-731.33746	298.95721	1527.10413	-581.59509	219.99760	811.04889	-694.42279	84.99863	572.58704	-691.54956	146.56535	571.62927	-706.33099	-24.12965	614.72522	-657.25317	-63.43828	855.77649	
4	0.060	-683.61340	136.79344	1850.08752	-627.48773	114.28309	1436.05615	-593.90710	0.41943	1046.93872	-581.03558	227.00211	1066.84143				-725.17859	253.86058	638.06781	-730.71094	248.97502	575.00269	-676.83685	208.78484	531.65564	-771.47803	256.83426	502.03427	-663.33844	-66.11389	164.04282	-716.34973	79.45235	215.38393	-603.23175	20.44345	165.48108	-674.68011	56.66887	155.79681	-711.09863	152.27873	216.36069	-796.04779	172.18913	184.02560	-770.93030	222.37201	205.16963	-594.44818	222.79301	173.24167	-882.67053	296.19333	144.58157	-561.16357	262.21606	165.99496	-667.31830	299.14658	159.66531	-629.98749	307.69446	162.45454	-528.16980	304.08307	146.45369	-700.52618	-63.75851	1545.86853	-791.78186	105.54594	1057.11987	-766.44019	-4.04382	207.72981	-794.38922	56.47982	175.02777	-765.68402	-30.97285	488.15775	-559.16608	-39.32621	164.11362	-875.85522	-78.73365	141.22168	-697.13220	-43.49214	716.48444	-719.95923	-20.27690	566.94653	-674.79309	171.75000	157.05403	-622.57086	-77.36250	159.31458				-638.23383	286.28732	874.75891	-517.77618	-72.50307	142.50648	-587.69336	1.99194	800.16199	-688.85052	277.27786	743.75897	-670.94983	23.50965	519.18994	-730.84888	299.51309	1527.48914	-581.64948	220.09344	810.97845	-694.41724	84.88776	572.65454	-691.54895	146.68021	571.82086	-706.53131	-24.20014	614.81952	-657.36273	-63.61141	855.89935	
5	0.080	-683.67505	136.66273	1850.10547	-627.18848	114.04466	1436.21765	-593.90710	0.41943	1046.93872	-581.03558	227.00211	1066.84143				-725.32867	253.90799	638.18140	-730.76923	248.98206	574.90479	-676.86804	208.76610	531.76758	-771.47803	256.83426	502.03427	-663.37634	-66.16262	164.09486	-716.34973	79.45235	215.38393	-603.10614	20.55021	165.34959	-674.72174	56.73238	155.70648	-711.19220	152.30917	216.26596	-796.00867	172.12848	184.14127	-771.01306	222.35315	205.15532	-594.51178	222.76276	173.30977	-882.71808	296.22659	144.56442	-561.11542	262.26755	166.10487	-667.33728	299.31702	159.50264	-629.98047	307.63623	162.48920	-528.13330	304.32492	146.41296	-700.58917	-63.93684	1545.85999	-791.77405	105.64327	1057.15369	-766.39539	-4.07029	207.70581	-794.38922	56.47982	175.02777	-765.78174	-30.90910	488.04028	-559.02655	-39.48070	164.11082	-875.85034	-78.68372	141.27127	-696.99963	-43.40965	716.41858	-720.01453	-20.47361	567.01740	-674.99878	171.84966	156.82413	-622.36810	-77.20144	159.43637				-637.73505	286.38092	874.70349	-517.72980	-72.69471	142.77153	-587.69336	1.99194	800.16199	-688.86108	277.21457	743.86096	-671.03925	23.45129	519.21692	-730.81787	299.52359	1527.52405	-581.59509	219.99760	811.04889	-694.42279	84.99863	572.58704	-691.54895	146.68021	571.82086	-706.53131	-24.20014	614.81952	-657.23608	-63.75610	855.99225	
6	0.100	-683.74536	136.52040	1850.10901	-627.18640	114.00475	1436.34229	-593.90710	0.41943	1046.93872	-581.03558	227.00211	1066.84143				-725.03912	253.64915	637.95679	-730.71094	248.97502	575.00269	-676.72668	208.63214	531.79425	-771.47803	256.83426	502.03427	-663.37634	-66.16262	164.09486	-716.58716	79.45892	215.37247	-603.11475	20.52006	165.54982	-674.84393	56.58751	155.61742	-711.19220	152.30917	216.26596	-796.04779	172.18913	184.02560	-770.98828	222.39734	205.16841	-594.48499	222.66698	173.38101	-882.55450	296.05902	144.50241	-561.11292	262.22800	165.94624	-667.25879	299.14923	159.68251	-629.97113	307.54849	162.33319	-528.27954	304.45236	146.40370	-700.62860	-63.87362	1545.77795	-791.92316	105.58671	1057.06702	-766.35785	-4.10763	207.82568	-794.37274	56.59369	175.02629	-765.79938	-30.84673	488.06039	-559.19434	-39.37734	164.18810	-876.03320	-78.59757	141.50241	-696.99963	-43.40965	716.41858	-720.01453	-20.47361	567.01740	-674.68549	171.62657	156.83304	-622.37329	-77.30267	159.35718				-637.32159	286.61398	875.07562	-517.77618	-72.50307	142.50648	-587.67194	1.88149	800.13300	-688.94232	277.59549	744.29224	-670.94189	23.57420	519.23877	-730.52655	299.14633	1527.63354	-581.43951	219.72653	811.27759	-694.41724	84.88776	572.65454	-691.56360	146.68874	571.68646	-706.41956	-24.27654	614.90613	-657.23608	-63.75610	855.99225	
7	0.120	-683.74750	136.26257	1850.13708	-627.22845	113.92281	1436.08411	-593.90710	0.41943	1046.93872	-580.78461	226.90437	1066.79236				-724.99701	253.75409	637.99426	-730.71094	248.97502	575.00269	-676.86804	208.76610	531.76758	-771.44202	256.75372	502.14554	-663.37634	-66.16262	164.09486	-716.60260	79.53815	215.64464	-603.10602	20.42420	165.54332	-674.58990	56.75033	155.63647	-711.00934	152.23827	216.44478	-795.90802	172.20782	183.97916	-771.05768	222.39220	205.00887	-594.48499	222.66698	173.38101	-882.72101	296.03165	144.44339	-561.16644	262.23077	166.04240	-667.26184	299.33292	159.72549	-630.00806	307.82724	162.31425	-528.08588	304.44724	146.29398	-700.63544	-64.05472	1545.72034	-791.87000	105.53770	1057.11108	-766.57935	-4.01822	207.94466	-794.38922	56.47982	175.02777	-765.60840	-31.04347	487.94815	-559.13641	-39.41684	163.96959	-876.00482	-78.69706	141.35422	-697.13220	-43.49214	716.48444	-719.99017	-20.42470	566.97015	-674.65820	171.77875	157.13187	-622.40698	-77.52867	159.38678				-637.26160	286.49023	875.18811	-517.66736	-72.72713	142.77681	-587.61188	1.91879	800.24054	-688.86127	277.23932	743.83362	-670.80957	23.41952	519.30328	-730.68152	299.19678	1527.51636	-581.62518	219.89622	810.81696	-694.50409	84.66740	572.47229	-691.54956	146.56535	571.62927	-706.41956	-24.27654	614.90613	-657.23810	-63.81626	855.91852	
8	0.140	-683.77844	136.17838	1850.15540	-627.11426	113.86036	1436.15588	-593.86615	0.33613	1046.80188	-581.20380	226.78624	1066.63806				-724.96423	253.43433	637.85498	-730.68640	248.98033	574.79285	-676.86804	208.76610	531.76758	-771.47803	256.83426	502.03427	-663.39044	-66.25050	164.03165	-716.46277	79.53812	215.49530	-603.09296	20.37787	165.50633	-674.54834	56.68682	155.72682	-711.19220	152.30917	216.26596	-795.90802	172.20782	183.97916	-770.84418	222.33467	205.10593	-594.48499	222.66698	173.38101	-882.85284	296.20154	144.56001	-561.05255	262.20197	166.13171	-667.31647	299.22995	159.61241	-629.96704	307.75842	162.45555	-528.04907	304.31696	146.34468	-700.64886	-64.14999	1545.68567	-791.92096	105.44860	1057.28394	-766.44019	-4.04382	207.72981	-794.36334	56.53501	174.92326	-765.72705	-30.93299	488.11261	-559.12048	-39.61847	163.98999	-875.86676	-78.59661	141.35963	-696.92017	-43.49920	716.43591	-720.09369	-20.59896	567.18524	-674.85388	171.98802	156.76067	-622.27185	-77.25348	159.25537				-637.53082	286.34543	874.77606	-517.64966	-72.61941	142.52187	-587.78082	1.80987	800.06995	-688.94232	277.59549	744.29224	-670.94983	23.50965	519.18994	-730.36127	299.12439	1527.64648	-581.70605	219.96973	810.85486	-694.41724	84.88776	572.65454	-691.54956	146.56535	571.62927	-706.49109	-24.15182	614.81635	-657.35126	-63.61005	855.92450	
